<?xml version="1.0" standalone="no"?>
<!DOCTYPE svg PUBLIC "-//W3C//DTD SVG 20010904//EN"
 "http://www.w3.org/TR/2001/REC-SVG-20010904/DTD/svg10.dtd">
<svg version="1.0" xmlns="http://www.w3.org/2000/svg"
 width="512.000000pt" height="512.000000pt" viewBox="0 0 512.000000 512.000000"
 preserveAspectRatio="xMidYMid meet">
<metadata>
Created by potrace 1.11, written by Peter Selinger 2001-2013
</metadata>
<g transform="translate(0.000000,512.000000) scale(0.100000,-0.100000)"
fill="#000000" stroke="none">
<path d="M4389 5116 c-2 -2 -17 -7 -34 -9 -121 -22 -229 -81 -325 -177 -124
-123 -180 -255 -186 -427 -3 -113 19 -207 68 -296 l25 -45 -566 -566 c-311
-311 -572 -566 -579 -566 -7 0 -32 13 -55 28 -65 44 -210 102 -306 122 -127
26 -315 20 -439 -14 -222 -62 -420 -205 -542 -393 -28 -43 -53 -79 -55 -81 -1
-2 -19 4 -39 12 -20 8 -40 16 -44 17 -13 3 -27 8 -354 115 l-326 108 -23 55
c-29 70 -88 135 -154 169 -42 22 -63 26 -135 26 -102 1 -159 -23 -229 -94 -65
-66 -85 -118 -85 -220 0 -102 22 -159 87 -223 108 -107 267 -125 392 -46 l47
30 381 -128 c299 -100 381 -131 378 -143 -3 -8 -6 -66 -7 -129 -7 -462 322
-857 786 -945 145 -28 397 -6 505 43 11 5 43 19 70 32 72 32 151 84 216 139
l56 48 104 -74 c57 -41 115 -82 129 -92 29 -20 234 -165 270 -192 14 -10 122
-87 240 -171 118 -84 217 -153 218 -155 2 -1 -6 -40 -17 -85 -16 -64 -20 -103
-17 -178 8 -171 64 -300 186 -421 122 -122 255 -180 425 -186 189 -6 342 53
473 184 125 125 180 251 188 428 7 188 -52 340 -187 475 -131 132 -282 190
-469 184 -136 -5 -238 -43 -371 -137 -13 -9 -58 19 -252 158 -130 93 -287 205
-349 249 -62 44 -117 84 -123 88 -5 4 -67 48 -136 98 l-127 89 28 68 c50 124
64 204 64 357 0 112 -4 157 -22 225 -21 81 -87 230 -131 295 l-20 30 569 569
569 569 58 -26 c106 -47 156 -60 249 -63 178 -6 333 56 462 184 126 125 188
270 190 445 3 284 -184 538 -458 622 -49 15 -260 31 -271 21z"/>
</g>
</svg>
